<svg width="13" height="18" viewBox="0 0 13 18" fill="none" xmlns="http://www.w3.org/2000/svg">
<path d="M12.1645 0.589722H1.00014C0.769564 0.589722 0.582398 0.776724 0.582398 1.00746V16.6529C0.582072 16.9663 0.757162 17.2535 1.03587 17.3968C1.31474 17.5399 1.65024 17.5149 1.90464 17.332L6.58232 13.9789L11.2602 17.3319C11.5147 17.5145 11.8499 17.5393 12.1286 17.3962C12.4071 17.253 12.5824 16.966 12.5824 16.6529V1.00746C12.5824 0.776724 12.3952 0.589722 12.1645 0.589722ZM11.7468 16.6527L6.82594 13.1253C6.68039 13.021 6.48457 13.021 6.33918 13.1253L1.4182 16.6529V1.4252H11.7468V16.6527Z" fill="white"/>
</svg>
