<svg width="20" height="21" viewBox="0 0 20 21" fill="none" xmlns="http://www.w3.org/2000/svg">
<path d="M8.80757 0.0393066C3.95121 0.0393066 0 3.99052 0 8.84688C0 13.7035 3.95121 17.6545 8.80757 17.6545C13.6642 17.6545 17.6151 13.7035 17.6151 8.84688C17.6151 3.99052 13.6642 0.0393066 8.80757 0.0393066ZM8.80757 16.0285C4.84769 16.0285 1.62601 12.8068 1.62601 8.84692C1.62601 4.88704 4.84769 1.66532 8.80757 1.66532C12.7675 1.66532 15.9891 4.887 15.9891 8.84688C15.9891 12.8068 12.7675 16.0285 8.80757 16.0285Z" fill="#AEAEAE"/>
<path d="M19.7618 18.6515L15.1005 13.9903C14.7829 13.6727 14.2685 13.6727 13.9509 13.9903C13.6333 14.3076 13.6333 14.8226 13.9509 15.1399L18.6122 19.8011C18.771 19.9599 18.9788 20.0393 19.187 20.0393C19.3948 20.0393 19.6029 19.9599 19.7618 19.8011C20.0794 19.4838 20.0794 18.9689 19.7618 18.6515Z" fill="#AEAEAE"/>
</svg>
