<svg width="123" height="24" viewBox="0 0 123 24" fill="none" xmlns="http://www.w3.org/2000/svg">
<path d="M6.32422 11.2893H4.37891V18.0393H0.265625V0.976807H4.37891V7.57446H5.96094L9.24219 0.976807H14.2227L9.53516 8.85181L14.8086 18.0393H9.94531L6.32422 11.2893ZM23.0234 5.35962H26.9844V18.0393H23.0234V10.6565L19.543 18.0393H15.5703V5.35962H19.543V12.719L23.0234 5.35962ZM40.3906 18.0393H36.4297V13.3401H32.9727V18.0393H29.0234V5.35962H32.9727V10.3049H36.4297V5.35962H40.3906V18.0393ZM42.0547 11.5823C42.0547 10.3167 42.3008 9.19165 42.793 8.20728C43.2852 7.21509 43.9922 6.45337 44.9141 5.92212C45.8359 5.39087 46.918 5.12524 48.1602 5.12524C50.0586 5.12524 51.5547 5.71509 52.6484 6.89478C53.7422 8.06665 54.2891 9.66431 54.2891 11.6877V11.8284C54.2891 13.8049 53.7383 15.3752 52.6367 16.5393C51.543 17.6956 50.0586 18.2737 48.1836 18.2737C46.3789 18.2737 44.9297 17.7346 43.8359 16.6565C42.7422 15.5706 42.1523 14.1018 42.0664 12.2502L42.0547 11.5823ZM46.0039 11.8284C46.0039 13.0002 46.1875 13.8596 46.5547 14.4065C46.9219 14.9534 47.4648 15.2268 48.1836 15.2268C49.5898 15.2268 50.3086 14.1448 50.3398 11.9807V11.5823C50.3398 9.30884 49.6133 8.17212 48.1602 8.17212C46.8398 8.17212 46.125 9.15259 46.0156 11.1135L46.0039 11.8284ZM70.543 18.0393H66.4297V4.15259H60.3008V18.0393H56.1875V0.976807H70.543V18.0393ZM77.9961 12.5081L80.1055 5.35962H84.3359L79.168 20.1604L78.9453 20.6995C78.2109 22.3401 76.9141 23.1604 75.0547 23.1604C74.5391 23.1604 73.9961 23.0823 73.4258 22.926V20.1018H73.9414C74.4961 20.1018 74.918 20.0198 75.207 19.8557C75.5039 19.6995 75.7227 19.4143 75.8633 19.0002L76.1797 18.1565L71.7734 5.35962H75.9922L77.9961 12.5081ZM96.207 5.35962V18.0393H92.2578V8.40649H89.8906L89.6797 12.2854C89.5312 14.2073 89.0977 15.6448 88.3789 16.5979C87.6602 17.551 86.5938 18.0315 85.1797 18.0393H83.9375L83.8906 15.0159L84.3008 14.969C84.8242 14.9065 85.2109 14.5588 85.4609 13.926C85.7188 13.2854 85.8828 12.3206 85.9531 11.0315L86.1992 5.35962H96.207ZM102.594 8.84009H104.621C105.793 8.84009 106.824 9.03149 107.715 9.41431C108.605 9.79712 109.285 10.3401 109.754 11.0432C110.223 11.7463 110.457 12.5627 110.457 13.4924C110.457 14.8596 109.926 15.9612 108.863 16.7971C107.809 17.6252 106.367 18.0393 104.539 18.0393H98.6211V5.35962H102.594V8.84009ZM102.594 11.8752V15.0159H104.598C105.199 15.0159 105.668 14.8792 106.004 14.6057C106.348 14.3245 106.52 13.9456 106.52 13.469C106.52 13.0002 106.367 12.6174 106.062 12.3206C105.758 12.0237 105.27 11.8752 104.598 11.8752H102.594ZM117.289 15.2268C117.844 15.2268 118.273 15.0784 118.578 14.7815C118.883 14.4768 119.031 14.0549 119.023 13.5159H122.727C122.727 14.9065 122.227 16.0471 121.227 16.9377C120.234 17.8284 118.953 18.2737 117.383 18.2737C115.539 18.2737 114.086 17.6956 113.023 16.5393C111.961 15.3831 111.43 13.7815 111.43 11.7346V11.5706C111.43 10.2893 111.664 9.1604 112.133 8.18384C112.609 7.19946 113.293 6.44556 114.184 5.92212C115.074 5.39087 116.129 5.12524 117.348 5.12524C118.996 5.12524 120.305 5.58228 121.273 6.49634C122.242 7.4104 122.727 8.64868 122.727 10.2112H119.023C119.023 9.55493 118.863 9.05103 118.543 8.69946C118.223 8.3479 117.793 8.17212 117.254 8.17212C116.23 8.17212 115.633 8.82446 115.461 10.1292C115.406 10.5432 115.379 11.1135 115.379 11.8401C115.379 13.1135 115.531 13.9963 115.836 14.4885C116.141 14.9807 116.625 15.2268 117.289 15.2268Z" fill="white"/>
</svg>
